<svg xmlns="http://www.w3.org/2000/svg" version="1.1" xmlns:xlink="http://www.w3.org/1999/xlink" xmlns:svgjs="http://svgjs.dev/svgjs" width="1440" height="560" preserveAspectRatio="none" viewBox="0 0 1440 560">
    <g mask="url(&quot;#SvgjsMask1000&quot;)" fill="none">
        <rect width="1440" height="560" x="0" y="0" fill="#0e2a47"></rect>
        <path d="M-62.8 398.99L-62.8 398.99" stroke="#132e65" stroke-width="1.5"></path>
        <path d="M-62.8 398.99L-52.81 496.92" stroke="#132e65" stroke-width="1.5"></path>
        <path d="M-62.8 398.99L52.07 545.96" stroke="#132e65" stroke-width="1.5"></path>
        <path d="M-62.8 398.99L-72.94 666.9" stroke="#132e65" stroke-width="1.5"></path>
        <path d="M-62.8 398.99L228.4 405.87" stroke="#132e65" stroke-width="1.5"></path>
        <path d="M-62.8 398.99L41.01 698.81" stroke="#132e65" stroke-width="1.5"></path>
        <path d="M-62.8 398.99L243.13 539.88" stroke="#132e65" stroke-width="1.5"></path>
        <path d="M-52.81 496.92L-52.81 496.92" stroke="#132e65" stroke-width="1.5"></path>
        <path d="M-52.81 496.92L52.07 545.96" stroke="#132e65" stroke-width="1.5"></path>
        <path d="M-52.81 496.92L-72.94 666.9" stroke="#132e65" stroke-width="1.5"></path>
        <path d="M-52.81 496.92L41.01 698.81" stroke="#132e65" stroke-width="1.5"></path>
        <path d="M-72.94 666.9L-72.94 666.9" stroke="#132e65" stroke-width="1.5"></path>
        <path d="M-72.94 666.9L41.01 698.81" stroke="#132e65" stroke-width="1.5"></path>
        <path d="M52.07 545.96L52.07 545.96" stroke="#132e65" stroke-width="1.5"></path>
        <path d="M52.07 545.96L41.01 698.81" stroke="#132e65" stroke-width="1.5"></path>
        <path d="M52.07 545.96L-72.94 666.9" stroke="#132e65" stroke-width="1.5"></path>
        <path d="M41.01 698.81L41.01 698.81" stroke="#132e65" stroke-width="1.5"></path>
        <path d="M41.01 698.81L199.24 696.26" stroke="#132e65" stroke-width="1.5"></path>
        <path d="M228.4 405.87L228.4 405.87" stroke="#132e65" stroke-width="1.5"></path>
        <path d="M228.4 405.87L351.61 375" stroke="#132e65" stroke-width="1.5"></path>
        <path d="M228.4 405.87L243.13 539.88" stroke="#132e65" stroke-width="1.5"></path>
        <path d="M228.4 405.87L359.74 493.35" stroke="#132e65" stroke-width="1.5"></path>
        <path d="M243.13 539.88L243.13 539.88" stroke="#132e65" stroke-width="1.5"></path>
        <path d="M243.13 539.88L359.74 493.35" stroke="#132e65" stroke-width="1.5"></path>
        <path d="M199.24 696.26L199.24 696.26" stroke="#132e65" stroke-width="1.5"></path>
        <path d="M199.24 696.26L243.13 539.88" stroke="#132e65" stroke-width="1.5"></path>
        <path d="M199.24 696.26L395.42 648.83" stroke="#132e65" stroke-width="1.5"></path>
        <path d="M199.24 696.26L52.07 545.96" stroke="#132e65" stroke-width="1.5"></path>
        <path d="M199.24 696.26L359.74 493.35" stroke="#132e65" stroke-width="1.5"></path>
        <path d="M199.24 696.26L-72.94 666.9" stroke="#132e65" stroke-width="1.5"></path>
        <path d="M351.61 375L351.61 375" stroke="#132e65" stroke-width="1.5"></path>
        <path d="M351.61 375L359.74 493.35" stroke="#132e65" stroke-width="1.5"></path>
        <path d="M351.61 375L536.01 408.72" stroke="#132e65" stroke-width="1.5"></path>
        <path d="M351.61 375L243.13 539.88" stroke="#132e65" stroke-width="1.5"></path>
        <path d="M359.74 493.35L359.74 493.35" stroke="#132e65" stroke-width="1.5"></path>
        <path d="M359.74 493.35L492.19 530.9" stroke="#132e65" stroke-width="1.5"></path>
        <path d="M395.42 648.83L395.42 648.83" stroke="#132e65" stroke-width="1.5"></path>
        <path d="M395.42 648.83L539.46 696.34" stroke="#132e65" stroke-width="1.5"></path>
        <path d="M395.42 648.83L492.19 530.9" stroke="#132e65" stroke-width="1.5"></path>
        <path d="M395.42 648.83L359.74 493.35" stroke="#132e65" stroke-width="1.5"></path>
        <path d="M536.01 408.72L536.01 408.72" stroke="#132e65" stroke-width="1.5"></path>
        <path d="M536.01 408.72L492.19 530.9" stroke="#132e65" stroke-width="1.5"></path>
        <path d="M536.01 408.72L654.37 344.27" stroke="#132e65" stroke-width="1.5"></path>
        <path d="M492.19 530.9L492.19 530.9" stroke="#132e65" stroke-width="1.5"></path>
        <path d="M539.46 696.34L539.46 696.34" stroke="#132e65" stroke-width="1.5"></path>
        <path d="M539.46 696.34L654.9 689.11" stroke="#132e65" stroke-width="1.5"></path>
        <path d="M539.46 696.34L492.19 530.9" stroke="#132e65" stroke-width="1.5"></path>
        <path d="M539.46 696.34L359.74 493.35" stroke="#132e65" stroke-width="1.5"></path>
        <path d="M539.46 696.34L536.01 408.72" stroke="#132e65" stroke-width="1.5"></path>
        <path d="M539.46 696.34L826.17 653.53" stroke="#132e65" stroke-width="1.5"></path>
        <path d="M666.91 224.58L666.91 224.58" stroke="#132e65" stroke-width="1.5"></path>
        <path d="M666.91 224.58L654.37 344.27" stroke="#132e65" stroke-width="1.5"></path>
        <path d="M666.91 224.58L830.68 349.28" stroke="#132e65" stroke-width="1.5"></path>
        <path d="M666.91 224.58L844.45 107.1" stroke="#132e65" stroke-width="1.5"></path>
        <path d="M666.91 224.58L536.01 408.72" stroke="#132e65" stroke-width="1.5"></path>
        <path d="M654.37 344.27L654.37 344.27" stroke="#132e65" stroke-width="1.5"></path>
        <path d="M654.37 344.27L830.68 349.28" stroke="#132e65" stroke-width="1.5"></path>
        <path d="M654.37 344.27L492.19 530.9" stroke="#132e65" stroke-width="1.5"></path>
        <path d="M654.9 689.11L654.9 689.11" stroke="#132e65" stroke-width="1.5"></path>
        <path d="M654.9 689.11L826.17 653.53" stroke="#132e65" stroke-width="1.5"></path>
        <path d="M654.9 689.11L492.19 530.9" stroke="#132e65" stroke-width="1.5"></path>
        <path d="M844.45 107.1L844.45 107.1" stroke="#132e65" stroke-width="1.5"></path>
        <path d="M844.45 107.1L954.71 102.77" stroke="#132e65" stroke-width="1.5"></path>
        <path d="M844.45 107.1L1007.36 188.96" stroke="#132e65" stroke-width="1.5"></path>
        <path d="M844.45 107.1L946.55 -99.33" stroke="#132e65" stroke-width="1.5"></path>
        <path d="M844.45 107.1L830.68 349.28" stroke="#132e65" stroke-width="1.5"></path>
        <path d="M844.45 107.1L1101.59 91.13" stroke="#132e65" stroke-width="1.5"></path>
        <path d="M830.68 349.28L830.68 349.28" stroke="#132e65" stroke-width="1.5"></path>
        <path d="M830.68 349.28L955.08 345.38" stroke="#132e65" stroke-width="1.5"></path>
        <path d="M830.68 349.28L849.74 541.9" stroke="#132e65" stroke-width="1.5"></path>
        <path d="M830.68 349.28L1004.71 500.89" stroke="#132e65" stroke-width="1.5"></path>
        <path d="M849.74 541.9L849.74 541.9" stroke="#132e65" stroke-width="1.5"></path>
        <path d="M849.74 541.9L826.17 653.53" stroke="#132e65" stroke-width="1.5"></path>
        <path d="M849.74 541.9L1004.71 500.89" stroke="#132e65" stroke-width="1.5"></path>
        <path d="M849.74 541.9L995.49 697.49" stroke="#132e65" stroke-width="1.5"></path>
        <path d="M849.74 541.9L955.08 345.38" stroke="#132e65" stroke-width="1.5"></path>
        <path d="M826.17 653.53L826.17 653.53" stroke="#132e65" stroke-width="1.5"></path>
        <path d="M826.17 653.53L995.49 697.49" stroke="#132e65" stroke-width="1.5"></path>
        <path d="M826.17 653.53L1004.71 500.89" stroke="#132e65" stroke-width="1.5"></path>
        <path d="M826.17 653.53L830.68 349.28" stroke="#132e65" stroke-width="1.5"></path>
        <path d="M946.55 -99.33L946.55 -99.33" stroke="#132e65" stroke-width="1.5"></path>
        <path d="M946.55 -99.33L1117.28 -41.23" stroke="#132e65" stroke-width="1.5"></path>
        <path d="M946.55 -99.33L954.71 102.77" stroke="#132e65" stroke-width="1.5"></path>
        <path d="M954.71 102.77L954.71 102.77" stroke="#132e65" stroke-width="1.5"></path>
        <path d="M954.71 102.77L1007.36 188.96" stroke="#132e65" stroke-width="1.5"></path>
        <path d="M1007.36 188.96L1007.36 188.96" stroke="#132e65" stroke-width="1.5"></path>
        <path d="M1007.36 188.96L1099.58 203.7" stroke="#132e65" stroke-width="1.5"></path>
        <path d="M955.08 345.38L955.08 345.38" stroke="#132e65" stroke-width="1.5"></path>
        <path d="M955.08 345.38L1104.45 379.62" stroke="#132e65" stroke-width="1.5"></path>
        <path d="M1004.71 500.89L1004.71 500.89" stroke="#132e65" stroke-width="1.5"></path>
        <path d="M1004.71 500.89L1098.66 511.57" stroke="#132e65" stroke-width="1.5"></path>
        <path d="M1004.71 500.89L1104.45 379.62" stroke="#132e65" stroke-width="1.5"></path>
        <path d="M995.49 697.49L995.49 697.49" stroke="#132e65" stroke-width="1.5"></path>
        <path d="M995.49 697.49L1155.8 641.44" stroke="#132e65" stroke-width="1.5"></path>
        <path d="M995.49 697.49L1004.71 500.89" stroke="#132e65" stroke-width="1.5"></path>
        <path d="M995.49 697.49L1098.66 511.57" stroke="#132e65" stroke-width="1.5"></path>
        <path d="M995.49 697.49L1239.09 520.11" stroke="#132e65" stroke-width="1.5"></path>
        <path d="M1117.28 -41.23L1117.28 -41.23" stroke="#132e65" stroke-width="1.5"></path>
        <path d="M1117.28 -41.23L1101.59 91.13" stroke="#132e65" stroke-width="1.5"></path>
        <path d="M1117.28 -41.23L1256.86 -110.57" stroke="#132e65" stroke-width="1.5"></path>
        <path d="M1101.59 91.13L1101.59 91.13" stroke="#132e65" stroke-width="1.5"></path>
        <path d="M1101.59 91.13L1099.58 203.7" stroke="#132e65" stroke-width="1.5"></path>
        <path d="M1099.58 203.7L1099.58 203.7" stroke="#132e65" stroke-width="1.5"></path>
        <path d="M1104.45 379.62L1104.45 379.62" stroke="#132e65" stroke-width="1.5"></path>
        <path d="M1104.45 379.62L1098.66 511.57" stroke="#132e65" stroke-width="1.5"></path>
        <path d="M1104.45 379.62L1240.52 339.52" stroke="#132e65" stroke-width="1.5"></path>
        <path d="M1098.66 511.57L1098.66 511.57" stroke="#132e65" stroke-width="1.5"></path>
        <path d="M1098.66 511.57L1239.09 520.11" stroke="#132e65" stroke-width="1.5"></path>
        <path d="M1098.66 511.57L1155.8 641.44" stroke="#132e65" stroke-width="1.5"></path>
        <path d="M1098.66 511.57L955.08 345.38" stroke="#132e65" stroke-width="1.5"></path>
        <path d="M1155.8 641.44L1155.8 641.44" stroke="#132e65" stroke-width="1.5"></path>
        <path d="M1155.8 641.44L1239.09 520.11" stroke="#132e65" stroke-width="1.5"></path>
        <path d="M1155.8 641.44L1310.65 640.76" stroke="#132e65" stroke-width="1.5"></path>
        <path d="M1256.86 -110.57L1256.86 -110.57" stroke="#132e65" stroke-width="1.5"></path>
        <path d="M1256.86 -110.57L1294.86 65.45" stroke="#132e65" stroke-width="1.5"></path>
        <path d="M1256.86 -110.57L1101.59 91.13" stroke="#132e65" stroke-width="1.5"></path>
        <path d="M1294.86 65.45L1294.86 65.45" stroke="#132e65" stroke-width="1.5"></path>
        <path d="M1294.86 65.45L1255.25 192.14" stroke="#132e65" stroke-width="1.5"></path>
        <path d="M1294.86 65.45L1441.81 84.83" stroke="#132e65" stroke-width="1.5"></path>
        <path d="M1255.25 192.14L1255.25 192.14" stroke="#132e65" stroke-width="1.5"></path>
        <path d="M1255.25 192.14L1240.52 339.52" stroke="#132e65" stroke-width="1.5"></path>
        <path d="M1240.52 339.52L1240.52 339.52" stroke="#132e65" stroke-width="1.5"></path>
        <path d="M1240.52 339.52L1239.09 520.11" stroke="#132e65" stroke-width="1.5"></path>
        <path d="M1240.52 339.52L1099.58 203.7" stroke="#132e65" stroke-width="1.5"></path>
        <path d="M1240.52 339.52L1456.14 337.8" stroke="#132e65" stroke-width="1.5"></path>
        <path d="M1239.09 520.11L1239.09 520.11" stroke="#132e65" stroke-width="1.5"></path>
        <path d="M1239.09 520.11L1310.65 640.76" stroke="#132e65" stroke-width="1.5"></path>
        <path d="M1239.09 520.11L1104.45 379.62" stroke="#132e65" stroke-width="1.5"></path>
        <path d="M1239.09 520.11L1388.21 655.41" stroke="#132e65" stroke-width="1.5"></path>
        <path d="M1310.65 640.76L1310.65 640.76" stroke="#132e65" stroke-width="1.5"></path>
        <path d="M1310.65 640.76L1388.21 655.41" stroke="#132e65" stroke-width="1.5"></path>
        <path d="M1310.65 640.76L1460.61 542.78" stroke="#132e65" stroke-width="1.5"></path>
        <path d="M1310.65 640.76L1098.66 511.57" stroke="#132e65" stroke-width="1.5"></path>
        <path d="M1441.81 84.83L1441.81 84.83" stroke="#132e65" stroke-width="1.5"></path>
        <path d="M1441.81 84.83L1421.18 205.37" stroke="#132e65" stroke-width="1.5"></path>
        <path d="M1441.81 84.83L1608.32 92.63" stroke="#132e65" stroke-width="1.5"></path>
        <path d="M1441.81 84.83L1610.04 196.05" stroke="#132e65" stroke-width="1.5"></path>
        <path d="M1441.81 84.83L1255.25 192.14" stroke="#132e65" stroke-width="1.5"></path>
        <path d="M1421.18 205.37L1421.18 205.37" stroke="#132e65" stroke-width="1.5"></path>
        <path d="M1421.18 205.37L1456.14 337.8" stroke="#132e65" stroke-width="1.5"></path>
        <path d="M1421.18 205.37L1255.25 192.14" stroke="#132e65" stroke-width="1.5"></path>
        <path d="M1421.18 205.37L1543.68 347.51" stroke="#132e65" stroke-width="1.5"></path>
        <path d="M1421.18 205.37L1294.86 65.45" stroke="#132e65" stroke-width="1.5"></path>
        <path d="M1421.18 205.37L1610.04 196.05" stroke="#132e65" stroke-width="1.5"></path>
        <path d="M1456.14 337.8L1456.14 337.8" stroke="#132e65" stroke-width="1.5"></path>
        <path d="M1456.14 337.8L1543.68 347.51" stroke="#132e65" stroke-width="1.5"></path>
        <path d="M1456.14 337.8L1460.61 542.78" stroke="#132e65" stroke-width="1.5"></path>
        <path d="M1460.61 542.78L1460.61 542.78" stroke="#132e65" stroke-width="1.5"></path>
        <path d="M1460.61 542.78L1556.62 555.17" stroke="#132e65" stroke-width="1.5"></path>
        <path d="M1460.61 542.78L1388.21 655.41" stroke="#132e65" stroke-width="1.5"></path>
        <path d="M1388.21 655.41L1388.21 655.41" stroke="#132e65" stroke-width="1.5"></path>
        <path d="M1388.21 655.41L1556.62 555.17" stroke="#132e65" stroke-width="1.5"></path>
        <path d="M1546.34 -105.62L1546.34 -105.62" stroke="#132e65" stroke-width="1.5"></path>
        <path d="M1546.34 -105.62L1608.32 92.63" stroke="#132e65" stroke-width="1.5"></path>
        <path d="M1546.34 -105.62L1441.81 84.83" stroke="#132e65" stroke-width="1.5"></path>
        <path d="M1546.34 -105.62L1256.86 -110.57" stroke="#132e65" stroke-width="1.5"></path>
        <path d="M1546.34 -105.62L1294.86 65.45" stroke="#132e65" stroke-width="1.5"></path>
        <path d="M1546.34 -105.62L1610.04 196.05" stroke="#132e65" stroke-width="1.5"></path>
        <path d="M1546.34 -105.62L1421.18 205.37" stroke="#132e65" stroke-width="1.5"></path>
        <path d="M1608.32 92.63L1608.32 92.63" stroke="#132e65" stroke-width="1.5"></path>
        <path d="M1608.32 92.63L1610.04 196.05" stroke="#132e65" stroke-width="1.5"></path>
        <path d="M1610.04 196.05L1610.04 196.05" stroke="#132e65" stroke-width="1.5"></path>
        <path d="M1610.04 196.05L1543.68 347.51" stroke="#132e65" stroke-width="1.5"></path>
        <path d="M1543.68 347.51L1543.68 347.51" stroke="#132e65" stroke-width="1.5"></path>
        <path d="M1556.62 555.17L1556.62 555.17" stroke="#132e65" stroke-width="1.5"></path>
        <path d="M1556.62 555.17L1543.68 347.51" stroke="#132e65" stroke-width="1.5"></path>
        <path d="M1556.62 555.17L1456.14 337.8" stroke="#132e65" stroke-width="1.5"></path>
        <path d="M1556.62 555.17L1310.65 640.76" stroke="#132e65" stroke-width="1.5"></path>
        <path d="M1556.62 555.17L1239.09 520.11" stroke="#132e65" stroke-width="1.5"></path>
        <circle r="5" cx="-62.8" cy="398.99" fill="#132e65"></circle>
        <circle r="5" cx="-52.81" cy="496.92" fill="#132e65"></circle>
        <circle r="5" cx="-72.94" cy="666.9" fill="#132e65"></circle>
        <circle r="5" cx="52.07" cy="545.96" fill="#132e65"></circle>
        <circle r="5" cx="41.01" cy="698.81" fill="#132e65"></circle>
        <circle r="5" cx="228.4" cy="405.87" fill="#132e65"></circle>
        <circle r="5" cx="243.13" cy="539.88" fill="#132e65"></circle>
        <circle r="5" cx="199.24" cy="696.26" fill="#132e65"></circle>
        <circle r="5" cx="351.61" cy="375" fill="#132e65"></circle>
        <circle r="5" cx="359.74" cy="493.35" fill="#132e65"></circle>
        <circle r="5" cx="395.42" cy="648.83" fill="#132e65"></circle>
        <circle r="5" cx="536.01" cy="408.72" fill="#132e65"></circle>
        <circle r="5" cx="492.19" cy="530.9" fill="#132e65"></circle>
        <circle r="5" cx="539.46" cy="696.34" fill="#132e65"></circle>
        <circle r="5" cx="666.91" cy="224.58" fill="#132e65"></circle>
        <circle r="5" cx="654.37" cy="344.27" fill="#132e65"></circle>
        <circle r="5" cx="654.9" cy="689.11" fill="#132e65"></circle>
        <circle r="5" cx="844.45" cy="107.1" fill="#132e65"></circle>
        <circle r="5" cx="830.68" cy="349.28" fill="#132e65"></circle>
        <circle r="5" cx="849.74" cy="541.9" fill="#132e65"></circle>
        <circle r="5" cx="826.17" cy="653.53" fill="#132e65"></circle>
        <circle r="5" cx="946.55" cy="-99.33" fill="#132e65"></circle>
        <circle r="5" cx="954.71" cy="102.77" fill="#132e65"></circle>
        <circle r="5" cx="1007.36" cy="188.96" fill="#132e65"></circle>
        <circle r="5" cx="955.08" cy="345.38" fill="#132e65"></circle>
        <circle r="5" cx="1004.71" cy="500.89" fill="#132e65"></circle>
        <circle r="5" cx="995.49" cy="697.49" fill="#132e65"></circle>
        <circle r="5" cx="1117.28" cy="-41.23" fill="#132e65"></circle>
        <circle r="5" cx="1101.59" cy="91.13" fill="#132e65"></circle>
        <circle r="5" cx="1099.58" cy="203.7" fill="#132e65"></circle>
        <circle r="5" cx="1104.45" cy="379.62" fill="#132e65"></circle>
        <circle r="5" cx="1098.66" cy="511.57" fill="#132e65"></circle>
        <circle r="5" cx="1155.8" cy="641.44" fill="#132e65"></circle>
        <circle r="5" cx="1256.86" cy="-110.57" fill="#132e65"></circle>
        <circle r="5" cx="1294.86" cy="65.45" fill="#132e65"></circle>
        <circle r="5" cx="1255.25" cy="192.14" fill="#132e65"></circle>
        <circle r="5" cx="1240.52" cy="339.52" fill="#132e65"></circle>
        <circle r="5" cx="1239.09" cy="520.11" fill="#132e65"></circle>
        <circle r="5" cx="1310.65" cy="640.76" fill="#132e65"></circle>
        <circle r="5" cx="1441.81" cy="84.83" fill="#132e65"></circle>
        <circle r="5" cx="1421.18" cy="205.37" fill="#132e65"></circle>
        <circle r="5" cx="1456.14" cy="337.8" fill="#132e65"></circle>
        <circle r="5" cx="1460.61" cy="542.78" fill="#132e65"></circle>
        <circle r="5" cx="1388.21" cy="655.41" fill="#132e65"></circle>
        <circle r="5" cx="1546.34" cy="-105.62" fill="#132e65"></circle>
        <circle r="5" cx="1608.32" cy="92.63" fill="#132e65"></circle>
        <circle r="5" cx="1610.04" cy="196.05" fill="#132e65"></circle>
        <circle r="5" cx="1543.68" cy="347.51" fill="#132e65"></circle>
        <circle r="5" cx="1556.62" cy="555.17" fill="#132e65"></circle>
        <path d="M-63.94 659.44L-63.94 659.44" stroke="hsl(228.5, 77.2%, 51.5%)" stroke-width="1.5"></path>
        <path d="M-63.94 659.44L-68.45 552.17" stroke="hsl(228.5, 77.2%, 51.5%)" stroke-width="1.5"></path>
        <path d="M-63.94 659.44L77.6 651" stroke="hsl(228.5, 77.2%, 51.5%)" stroke-width="1.5"></path>
        <path d="M-63.94 659.44L103.84 543.79" stroke="hsl(228.5, 77.2%, 51.5%)" stroke-width="1.5"></path>
        <path d="M-63.94 659.44L219.17 680.9" stroke="hsl(228.5, 77.2%, 51.5%)" stroke-width="1.5"></path>
        <path d="M-63.94 659.44L208.19 513.18" stroke="hsl(228.5, 77.2%, 51.5%)" stroke-width="1.5"></path>
        <path d="M77.6 651L77.6 651" stroke="hsl(228.5, 77.2%, 51.5%)" stroke-width="1.5"></path>
        <path d="M77.6 651L103.84 543.79" stroke="hsl(228.5, 77.2%, 51.5%)" stroke-width="1.5"></path>
        <path d="M77.6 651L219.17 680.9" stroke="hsl(228.5, 77.2%, 51.5%)" stroke-width="1.5"></path>
        <path d="M77.6 651L-68.45 552.17" stroke="hsl(228.5, 77.2%, 51.5%)" stroke-width="1.5"></path>
        <path d="M77.6 651L208.19 513.18" stroke="hsl(228.5, 77.2%, 51.5%)" stroke-width="1.5"></path>
        <path d="M77.6 651L351.86 699.3" stroke="hsl(228.5, 77.2%, 51.5%)" stroke-width="1.5"></path>
        <path d="M219.17 680.9L219.17 680.9" stroke="hsl(228.5, 77.2%, 51.5%)" stroke-width="1.5"></path>
        <path d="M219.17 680.9L351.86 699.3" stroke="hsl(228.5, 77.2%, 51.5%)" stroke-width="1.5"></path>
        <path d="M219.17 680.9L208.19 513.18" stroke="hsl(228.5, 77.2%, 51.5%)" stroke-width="1.5"></path>
        <path d="M827.19 535.55L827.19 535.55" stroke="hsl(228.5, 77.2%, 51.5%)" stroke-width="1.5"></path>
        <path d="M827.19 535.55L804.77 660.5" stroke="hsl(228.5, 77.2%, 51.5%)" stroke-width="1.5"></path>
        <path d="M827.19 535.55L966.89 553.43" stroke="hsl(228.5, 77.2%, 51.5%)" stroke-width="1.5"></path>
        <path d="M827.19 535.55L856.57 392.06" stroke="hsl(228.5, 77.2%, 51.5%)" stroke-width="1.5"></path>
        <path d="M1131.61 401.42L1131.61 401.42" stroke="hsl(228.5, 77.2%, 51.5%)" stroke-width="1.5"></path>
        <path d="M1131.61 401.42L1003.86 349.27" stroke="hsl(228.5, 77.2%, 51.5%)" stroke-width="1.5"></path>
        <path d="M1131.61 401.42L1304.14 389.39" stroke="hsl(228.5, 77.2%, 51.5%)" stroke-width="1.5"></path>
        <path d="M1441.58 76.97L1441.58 76.97" stroke="hsl(228.5, 77.2%, 51.5%)" stroke-width="1.5"></path>
        <path d="M1441.58 76.97L1388.21 -65.73" stroke="hsl(228.5, 77.2%, 51.5%)" stroke-width="1.5"></path>
        <path d="M1441.58 76.97L1598.57 64.17" stroke="hsl(228.5, 77.2%, 51.5%)" stroke-width="1.5"></path>
        <path d="M1441.58 76.97L1418.2 255.34" stroke="hsl(228.5, 77.2%, 51.5%)" stroke-width="1.5"></path>
        <path d="M1441.58 76.97L1245.88 65.03" stroke="hsl(228.5, 77.2%, 51.5%)" stroke-width="1.5"></path>
        <path d="M1441.58 76.97L1309.12 -111.34" stroke="hsl(228.5, 77.2%, 51.5%)" stroke-width="1.5"></path>
        <path d="M1441.58 76.97L1597.74 -108.7" stroke="hsl(228.5, 77.2%, 51.5%)" stroke-width="1.5"></path>
        <path d="M1418.2 255.34L1418.2 255.34" stroke="hsl(228.5, 77.2%, 51.5%)" stroke-width="1.5"></path>
        <path d="M1418.2 255.34L1407.31 403.07" stroke="hsl(228.5, 77.2%, 51.5%)" stroke-width="1.5"></path>
        <path d="M1418.2 255.34L1304.14 389.39" stroke="hsl(228.5, 77.2%, 51.5%)" stroke-width="1.5"></path>
        <path d="M1418.2 255.34L1245.88 65.03" stroke="hsl(228.5, 77.2%, 51.5%)" stroke-width="1.5"></path>
        <path d="M1418.2 255.34L1598.57 64.17" stroke="hsl(228.5, 77.2%, 51.5%)" stroke-width="1.5"></path>
        <path d="M1418.2 255.34L1278.5 498.31" stroke="hsl(228.5, 77.2%, 51.5%)" stroke-width="1.5"></path>
        <path d="M1585.73 647.67L1585.73 647.67" stroke="hsl(228.5, 77.2%, 51.5%)" stroke-width="1.5"></path>
        <path d="M1585.73 647.67L1541.35 556.69" stroke="hsl(228.5, 77.2%, 51.5%)" stroke-width="1.5"></path>
        <path d="M1585.73 647.67L1458.7 646.71" stroke="hsl(228.5, 77.2%, 51.5%)" stroke-width="1.5"></path>
        <path d="M-68.45 552.17L-68.45 552.17" stroke="hsl(228.5, 77.2%, 51.5%)" stroke-width="1.5"></path>
        <path d="M-68.45 552.17L103.84 543.79" stroke="hsl(228.5, 77.2%, 51.5%)" stroke-width="1.5"></path>
        <path d="M-68.45 552.17L208.19 513.18" stroke="hsl(228.5, 77.2%, 51.5%)" stroke-width="1.5"></path>
        <path d="M103.84 543.79L103.84 543.79" stroke="hsl(228.5, 77.2%, 51.5%)" stroke-width="1.5"></path>
        <path d="M103.84 543.79L208.19 513.18" stroke="hsl(228.5, 77.2%, 51.5%)" stroke-width="1.5"></path>
        <path d="M103.84 543.79L219.17 680.9" stroke="hsl(228.5, 77.2%, 51.5%)" stroke-width="1.5"></path>
        <path d="M208.19 513.18L208.19 513.18" stroke="hsl(228.5, 77.2%, 51.5%)" stroke-width="1.5"></path>
        <path d="M208.19 513.18L398.34 538.23" stroke="hsl(228.5, 77.2%, 51.5%)" stroke-width="1.5"></path>
        <path d="M208.19 513.18L351.86 699.3" stroke="hsl(228.5, 77.2%, 51.5%)" stroke-width="1.5"></path>
        <path d="M398.34 538.23L398.34 538.23" stroke="hsl(228.5, 77.2%, 51.5%)" stroke-width="1.5"></path>
        <path d="M398.34 538.23L505.15 535.62" stroke="hsl(228.5, 77.2%, 51.5%)" stroke-width="1.5"></path>
        <path d="M398.34 538.23L351.86 699.3" stroke="hsl(228.5, 77.2%, 51.5%)" stroke-width="1.5"></path>
        <path d="M398.34 538.23L529.64 682.57" stroke="hsl(228.5, 77.2%, 51.5%)" stroke-width="1.5"></path>
        <path d="M398.34 538.23L219.17 680.9" stroke="hsl(228.5, 77.2%, 51.5%)" stroke-width="1.5"></path>
        <path d="M351.86 699.3L351.86 699.3" stroke="hsl(228.5, 77.2%, 51.5%)" stroke-width="1.5"></path>
        <path d="M505.15 535.62L505.15 535.62" stroke="hsl(228.5, 77.2%, 51.5%)" stroke-width="1.5"></path>
        <path d="M505.15 535.62L529.64 682.57" stroke="hsl(228.5, 77.2%, 51.5%)" stroke-width="1.5"></path>
        <path d="M505.15 535.62L664.2 527.71" stroke="hsl(228.5, 77.2%, 51.5%)" stroke-width="1.5"></path>
        <path d="M505.15 535.62L351.86 699.3" stroke="hsl(228.5, 77.2%, 51.5%)" stroke-width="1.5"></path>
        <path d="M505.15 535.62L699.97 647.07" stroke="hsl(228.5, 77.2%, 51.5%)" stroke-width="1.5"></path>
        <path d="M505.15 535.62L208.19 513.18" stroke="hsl(228.5, 77.2%, 51.5%)" stroke-width="1.5"></path>
        <path d="M529.64 682.57L529.64 682.57" stroke="hsl(228.5, 77.2%, 51.5%)" stroke-width="1.5"></path>
        <path d="M529.64 682.57L699.97 647.07" stroke="hsl(228.5, 77.2%, 51.5%)" stroke-width="1.5"></path>
        <path d="M529.64 682.57L351.86 699.3" stroke="hsl(228.5, 77.2%, 51.5%)" stroke-width="1.5"></path>
        <path d="M664.2 527.71L664.2 527.71" stroke="hsl(228.5, 77.2%, 51.5%)" stroke-width="1.5"></path>
        <path d="M664.2 527.71L699.97 647.07" stroke="hsl(228.5, 77.2%, 51.5%)" stroke-width="1.5"></path>
        <path d="M699.97 647.07L699.97 647.07" stroke="hsl(228.5, 77.2%, 51.5%)" stroke-width="1.5"></path>
        <path d="M699.97 647.07L804.77 660.5" stroke="hsl(228.5, 77.2%, 51.5%)" stroke-width="1.5"></path>
        <path d="M699.97 647.07L827.19 535.55" stroke="hsl(228.5, 77.2%, 51.5%)" stroke-width="1.5"></path>
        <path d="M699.97 647.07L966.89 553.43" stroke="hsl(228.5, 77.2%, 51.5%)" stroke-width="1.5"></path>
        <path d="M856.57 392.06L856.57 392.06" stroke="hsl(228.5, 77.2%, 51.5%)" stroke-width="1.5"></path>
        <path d="M804.77 660.5L804.77 660.5" stroke="hsl(228.5, 77.2%, 51.5%)" stroke-width="1.5"></path>
        <path d="M804.77 660.5L664.2 527.71" stroke="hsl(228.5, 77.2%, 51.5%)" stroke-width="1.5"></path>
        <path d="M804.77 660.5L966.89 553.43" stroke="hsl(228.5, 77.2%, 51.5%)" stroke-width="1.5"></path>
        <path d="M804.77 660.5L999.21 708.62" stroke="hsl(228.5, 77.2%, 51.5%)" stroke-width="1.5"></path>
        <path d="M1003.86 349.27L1003.86 349.27" stroke="hsl(228.5, 77.2%, 51.5%)" stroke-width="1.5"></path>
        <path d="M1003.86 349.27L856.57 392.06" stroke="hsl(228.5, 77.2%, 51.5%)" stroke-width="1.5"></path>
        <path d="M966.89 553.43L966.89 553.43" stroke="hsl(228.5, 77.2%, 51.5%)" stroke-width="1.5"></path>
        <path d="M966.89 553.43L999.21 708.62" stroke="hsl(228.5, 77.2%, 51.5%)" stroke-width="1.5"></path>
        <path d="M999.21 708.62L999.21 708.62" stroke="hsl(228.5, 77.2%, 51.5%)" stroke-width="1.5"></path>
        <path d="M999.21 708.62L1124.1 679.27" stroke="hsl(228.5, 77.2%, 51.5%)" stroke-width="1.5"></path>
        <path d="M1094.95 193.13L1094.95 193.13" stroke="hsl(228.5, 77.2%, 51.5%)" stroke-width="1.5"></path>
        <path d="M1094.95 193.13L1003.86 349.27" stroke="hsl(228.5, 77.2%, 51.5%)" stroke-width="1.5"></path>
        <path d="M1094.95 193.13L1245.88 65.03" stroke="hsl(228.5, 77.2%, 51.5%)" stroke-width="1.5"></path>
        <path d="M1094.95 193.13L1131.61 401.42" stroke="hsl(228.5, 77.2%, 51.5%)" stroke-width="1.5"></path>
        <path d="M1094.95 193.13L1304.14 389.39" stroke="hsl(228.5, 77.2%, 51.5%)" stroke-width="1.5"></path>
        <path d="M1094.95 193.13L856.57 392.06" stroke="hsl(228.5, 77.2%, 51.5%)" stroke-width="1.5"></path>
        <path d="M1124.1 679.27L1124.1 679.27" stroke="hsl(228.5, 77.2%, 51.5%)" stroke-width="1.5"></path>
        <path d="M1124.1 679.27L966.89 553.43" stroke="hsl(228.5, 77.2%, 51.5%)" stroke-width="1.5"></path>
        <path d="M1124.1 679.27L1278.5 498.31" stroke="hsl(228.5, 77.2%, 51.5%)" stroke-width="1.5"></path>
        <path d="M1124.1 679.27L1131.61 401.42" stroke="hsl(228.5, 77.2%, 51.5%)" stroke-width="1.5"></path>
        <path d="M1124.1 679.27L804.77 660.5" stroke="hsl(228.5, 77.2%, 51.5%)" stroke-width="1.5"></path>
        <path d="M1309.12 -111.34L1309.12 -111.34" stroke="hsl(228.5, 77.2%, 51.5%)" stroke-width="1.5"></path>
        <path d="M1309.12 -111.34L1388.21 -65.73" stroke="hsl(228.5, 77.2%, 51.5%)" stroke-width="1.5"></path>
        <path d="M1309.12 -111.34L1245.88 65.03" stroke="hsl(228.5, 77.2%, 51.5%)" stroke-width="1.5"></path>
        <path d="M1309.12 -111.34L1597.74 -108.7" stroke="hsl(228.5, 77.2%, 51.5%)" stroke-width="1.5"></path>
        <path d="M1309.12 -111.34L1598.57 64.17" stroke="hsl(228.5, 77.2%, 51.5%)" stroke-width="1.5"></path>
        <path d="M1309.12 -111.34L1094.95 193.13" stroke="hsl(228.5, 77.2%, 51.5%)" stroke-width="1.5"></path>
        <path d="M1245.88 65.03L1245.88 65.03" stroke="hsl(228.5, 77.2%, 51.5%)" stroke-width="1.5"></path>
        <path d="M1245.88 65.03L1388.21 -65.73" stroke="hsl(228.5, 77.2%, 51.5%)" stroke-width="1.5"></path>
        <path d="M1304.14 389.39L1304.14 389.39" stroke="hsl(228.5, 77.2%, 51.5%)" stroke-width="1.5"></path>
        <path d="M1304.14 389.39L1407.31 403.07" stroke="hsl(228.5, 77.2%, 51.5%)" stroke-width="1.5"></path>
        <path d="M1304.14 389.39L1278.5 498.31" stroke="hsl(228.5, 77.2%, 51.5%)" stroke-width="1.5"></path>
        <path d="M1278.5 498.31L1278.5 498.31" stroke="hsl(228.5, 77.2%, 51.5%)" stroke-width="1.5"></path>
        <path d="M1278.5 498.31L1430.26 545.34" stroke="hsl(228.5, 77.2%, 51.5%)" stroke-width="1.5"></path>
        <path d="M1278.5 498.31L1407.31 403.07" stroke="hsl(228.5, 77.2%, 51.5%)" stroke-width="1.5"></path>
        <path d="M1278.5 498.31L1131.61 401.42" stroke="hsl(228.5, 77.2%, 51.5%)" stroke-width="1.5"></path>
        <path d="M1278.5 498.31L1458.7 646.71" stroke="hsl(228.5, 77.2%, 51.5%)" stroke-width="1.5"></path>
        <path d="M1388.21 -65.73L1388.21 -65.73" stroke="hsl(228.5, 77.2%, 51.5%)" stroke-width="1.5"></path>
        <path d="M1407.31 403.07L1407.31 403.07" stroke="hsl(228.5, 77.2%, 51.5%)" stroke-width="1.5"></path>
        <path d="M1407.31 403.07L1430.26 545.34" stroke="hsl(228.5, 77.2%, 51.5%)" stroke-width="1.5"></path>
        <path d="M1407.31 403.07L1541.35 556.69" stroke="hsl(228.5, 77.2%, 51.5%)" stroke-width="1.5"></path>
        <path d="M1430.26 545.34L1430.26 545.34" stroke="hsl(228.5, 77.2%, 51.5%)" stroke-width="1.5"></path>
        <path d="M1430.26 545.34L1458.7 646.71" stroke="hsl(228.5, 77.2%, 51.5%)" stroke-width="1.5"></path>
        <path d="M1430.26 545.34L1541.35 556.69" stroke="hsl(228.5, 77.2%, 51.5%)" stroke-width="1.5"></path>
        <path d="M1430.26 545.34L1585.73 647.67" stroke="hsl(228.5, 77.2%, 51.5%)" stroke-width="1.5"></path>
        <path d="M1458.7 646.71L1458.7 646.71" stroke="hsl(228.5, 77.2%, 51.5%)" stroke-width="1.5"></path>
        <path d="M1458.7 646.71L1541.35 556.69" stroke="hsl(228.5, 77.2%, 51.5%)" stroke-width="1.5"></path>
        <path d="M1597.74 -108.7L1597.74 -108.7" stroke="hsl(228.5, 77.2%, 51.5%)" stroke-width="1.5"></path>
        <path d="M1597.74 -108.7L1598.57 64.17" stroke="hsl(228.5, 77.2%, 51.5%)" stroke-width="1.5"></path>
        <path d="M1597.74 -108.7L1388.21 -65.73" stroke="hsl(228.5, 77.2%, 51.5%)" stroke-width="1.5"></path>
        <path d="M1597.74 -108.7L1245.88 65.03" stroke="hsl(228.5, 77.2%, 51.5%)" stroke-width="1.5"></path>
        <path d="M1597.74 -108.7L1418.2 255.34" stroke="hsl(228.5, 77.2%, 51.5%)" stroke-width="1.5"></path>
        <path d="M1598.57 64.17L1598.57 64.17" stroke="hsl(228.5, 77.2%, 51.5%)" stroke-width="1.5"></path>
        <path d="M1598.57 64.17L1388.21 -65.73" stroke="hsl(228.5, 77.2%, 51.5%)" stroke-width="1.5"></path>
        <path d="M1598.57 64.17L1245.88 65.03" stroke="hsl(228.5, 77.2%, 51.5%)" stroke-width="1.5"></path>
        <path d="M1541.35 556.69L1541.35 556.69" stroke="hsl(228.5, 77.2%, 51.5%)" stroke-width="1.5"></path>
        <circle r="25" cx="-63.94" cy="659.44" fill="url(&quot;#SvgjsRadialGradient1001&quot;)"></circle>
        <circle r="25" cx="77.6" cy="651" fill="url(&quot;#SvgjsRadialGradient1001&quot;)"></circle>
        <circle r="25" cx="219.17" cy="680.9" fill="url(&quot;#SvgjsRadialGradient1001&quot;)"></circle>
        <circle r="25" cx="827.19" cy="535.55" fill="url(&quot;#SvgjsRadialGradient1001&quot;)"></circle>
        <circle r="25" cx="1131.61" cy="401.42" fill="url(&quot;#SvgjsRadialGradient1001&quot;)"></circle>
        <circle r="25" cx="1441.58" cy="76.97" fill="url(&quot;#SvgjsRadialGradient1001&quot;)"></circle>
        <circle r="25" cx="1418.2" cy="255.34" fill="url(&quot;#SvgjsRadialGradient1001&quot;)"></circle>
        <circle r="25" cx="1585.73" cy="647.67" fill="url(&quot;#SvgjsRadialGradient1001&quot;)"></circle>
        <circle r="5" cx="-68.45" cy="552.17" fill="#8b9ad9"></circle>
        <circle r="5" cx="103.84" cy="543.79" fill="#8b9ad9"></circle>
        <circle r="5" cx="208.19" cy="513.18" fill="#8b9ad9"></circle>
        <circle r="5" cx="398.34" cy="538.23" fill="#8b9ad9"></circle>
        <circle r="5" cx="351.86" cy="699.3" fill="#8b9ad9"></circle>
        <circle r="5" cx="505.15" cy="535.62" fill="#8b9ad9"></circle>
        <circle r="5" cx="529.64" cy="682.57" fill="#8b9ad9"></circle>
        <circle r="5" cx="664.2" cy="527.71" fill="#8b9ad9"></circle>
        <circle r="5" cx="699.97" cy="647.07" fill="#8b9ad9"></circle>
        <circle r="5" cx="856.57" cy="392.06" fill="#8b9ad9"></circle>
        <circle r="5" cx="804.77" cy="660.5" fill="#8b9ad9"></circle>
        <circle r="5" cx="1003.86" cy="349.27" fill="#8b9ad9"></circle>
        <circle r="5" cx="966.89" cy="553.43" fill="#8b9ad9"></circle>
        <circle r="5" cx="999.21" cy="708.62" fill="#8b9ad9"></circle>
        <circle r="5" cx="1094.95" cy="193.13" fill="#8b9ad9"></circle>
        <circle r="5" cx="1124.1" cy="679.27" fill="#8b9ad9"></circle>
        <circle r="5" cx="1309.12" cy="-111.34" fill="#8b9ad9"></circle>
        <circle r="5" cx="1245.88" cy="65.03" fill="#8b9ad9"></circle>
        <circle r="5" cx="1304.14" cy="389.39" fill="#8b9ad9"></circle>
        <circle r="5" cx="1278.5" cy="498.31" fill="#8b9ad9"></circle>
        <circle r="5" cx="1388.21" cy="-65.73" fill="#8b9ad9"></circle>
        <circle r="5" cx="1407.31" cy="403.07" fill="#8b9ad9"></circle>
        <circle r="5" cx="1430.26" cy="545.34" fill="#8b9ad9"></circle>
        <circle r="5" cx="1458.7" cy="646.71" fill="#8b9ad9"></circle>
        <circle r="5" cx="1597.74" cy="-108.7" fill="#8b9ad9"></circle>
        <circle r="5" cx="1598.57" cy="64.17" fill="#8b9ad9"></circle>
        <circle r="5" cx="1541.35" cy="556.69" fill="#8b9ad9"></circle>
    </g>
    <defs>
        <mask id="SvgjsMask1000">
            <rect width="1440" height="560" fill="#ffffff"></rect>
        </mask>
        <radialGradient id="SvgjsRadialGradient1001">
            <stop stop-color="#ffffff" offset="0.1"></stop>
            <stop stop-color="#1735b3" offset="0.2"></stop>
            <stop stop-color="rgba(23, 53, 179, 0)" offset="1"></stop>
        </radialGradient>
    </defs>
</svg>